<svg width="117" height="28" viewBox="0 0 117 28" fill="none" xmlns="http://www.w3.org/2000/svg">
<path d="M26.3224 7.18188V25.028H37.0591V27.3495H23.6382V7.18188H26.3224Z" fill="#75C252"/>
<path d="M53.3091 7.18188V9.43079H42.0645V15.8148H52.5836V18.0637H42.0645V25.028H53.3816V27.3495H39.3804V7.18188H53.3091Z" fill="#75C252"/>
<path d="M66.9476 19.0068L63.6105 9.57588H63.538L60.1284 19.0068H66.9476ZM65.134 7.18188L73.0414 27.3495H70.0671L67.8907 21.2557H59.2578L57.0089 27.3495H54.2522L62.1596 7.18188H65.134Z" fill="#75C252"/>
<path d="M85.0115 16.3226C85.5919 16.2501 86.0997 16.0324 86.4624 15.7422C86.8977 15.4521 87.2604 15.0893 87.478 14.6541C87.6957 14.2188 87.8408 13.5659 87.8408 12.8404C87.8408 11.8248 87.5506 11.0268 86.9702 10.3739C86.3899 9.72097 85.5193 9.43079 84.2135 9.43079H77.6119V16.4677H83.1979C83.8508 16.4677 84.4311 16.3951 85.0115 16.3226ZM84.4311 7.18188C86.3173 7.18188 87.8408 7.61716 88.929 8.56025C90.0171 9.50334 90.525 10.8092 90.525 12.4051C90.525 13.6384 90.2348 14.7266 89.7269 15.5971C89.1466 16.5402 88.276 17.1206 87.0428 17.4833V17.5559C87.6231 17.701 88.131 17.846 88.4937 18.1362C88.8564 18.4264 89.1466 18.7166 89.3642 19.0793C89.5819 19.442 89.727 19.8773 89.872 20.3126C89.9446 20.7479 90.0897 21.2557 90.0897 21.691C90.1622 22.1988 90.1622 22.7066 90.1622 23.2144C90.1622 23.7222 90.2348 24.23 90.3073 24.7379C90.3799 25.2457 90.525 25.6809 90.5975 26.1162C90.7426 26.5515 90.9602 26.9142 91.2504 27.2769H88.276C88.0584 27.0593 87.9859 26.7691 87.9133 26.4064C87.8408 26.0437 87.8408 25.6809 87.7682 25.1731C87.7682 24.7379 87.6957 24.23 87.6957 23.7222C87.6957 23.2144 87.6231 22.7066 87.5506 22.1988C87.478 21.691 87.4055 21.2557 87.2604 20.8204C87.1153 20.3851 86.9702 20.0224 86.7526 19.6597C86.535 19.297 86.1722 19.0793 85.8095 18.8617C85.4468 18.644 84.8664 18.5715 84.2135 18.5715H77.6844V27.2044H75.0002V7.18188H84.4311Z" fill="#75C252"/>
<path d="M94.4424 27.3495H97.1266V7.18188H94.4424V27.3495Z" fill="#75C252"/>
<path d="M111.781 9.93861C110.91 9.2857 109.75 8.99552 108.371 8.99552C107.791 8.99552 107.283 9.06807 106.703 9.14061C106.122 9.28571 105.687 9.4308 105.252 9.72098C104.816 10.0112 104.454 10.3739 104.236 10.8092C104.018 11.2444 103.873 11.8248 103.873 12.4777C103.873 13.1306 104.091 13.6384 104.454 14.0012C104.816 14.3639 105.324 14.7266 105.905 14.9442C106.485 15.1619 107.21 15.3795 108.008 15.5246C108.806 15.6697 109.532 15.8873 110.402 16.0324C111.2 16.2501 111.998 16.4677 112.796 16.6853C113.594 16.9755 114.247 17.2657 114.9 17.701C115.481 18.1362 115.988 18.6441 116.351 19.3695C116.714 20.0224 116.932 20.893 116.932 21.8361C116.932 22.9242 116.714 23.7948 116.206 24.5928C115.698 25.3908 115.118 25.9711 114.32 26.479C113.594 26.9868 112.724 27.277 111.781 27.4946C110.838 27.7122 109.895 27.7848 109.024 27.7848C107.863 27.7848 106.848 27.6397 105.832 27.3495C104.816 27.0593 103.946 26.624 103.148 26.0437C102.35 25.4633 101.77 24.7379 101.334 23.8673C100.899 22.9968 100.681 21.9086 100.681 20.6753H103.22C103.22 21.5459 103.366 22.2713 103.728 22.8517C104.091 23.432 104.526 23.9399 105.034 24.3751C105.542 24.7379 106.195 25.028 106.92 25.2457C107.646 25.4633 108.371 25.5359 109.097 25.5359C109.677 25.5359 110.33 25.4633 110.91 25.3908C111.491 25.2457 112.071 25.1006 112.579 24.8104C113.087 24.5202 113.449 24.1575 113.74 23.7222C114.03 23.287 114.175 22.634 114.175 21.9086C114.175 21.1831 113.957 20.6753 113.594 20.2401C113.232 19.8048 112.724 19.4421 112.144 19.1519C111.563 18.8617 110.838 18.6441 110.04 18.499C109.242 18.3539 108.516 18.1362 107.646 17.9911C106.848 17.8461 106.05 17.6284 105.252 17.3382C104.454 17.0481 103.801 16.7579 103.148 16.3951C102.495 16.0324 102.06 15.5246 101.697 14.8717C101.334 14.2913 101.117 13.4933 101.117 12.5502C101.117 11.5346 101.334 10.6641 101.77 9.93861C102.205 9.21316 102.713 8.56025 103.438 8.12498C104.091 7.61716 104.889 7.25444 105.76 7.0368C106.63 6.81916 107.501 6.67407 108.444 6.67407C109.459 6.67407 110.475 6.81916 111.346 7.0368C112.216 7.25444 113.014 7.68971 113.667 8.19752C114.32 8.70534 114.828 9.35825 115.263 10.1562C115.626 10.9542 115.843 11.8973 115.916 13.0581H113.377C113.159 11.6072 112.651 10.5915 111.781 9.93861Z" fill="#75C252"/>
<path d="M20.6638 12.6954C20.3736 11.97 18.6325 6.45654 11.4505 6.09381L11.5231 2.90181C11.5231 2.90181 11.7407 1.45091 13.1916 1.16073H14.57C14.8601 1.16073 15.1503 0.870544 15.1503 0.580363C15.1503 0.290181 14.8601 0 14.57 0H12.9014C10.58 0.290181 10.2172 2.53909 10.2172 2.53909C10.0722 2.90181 10.1447 5.58599 10.1447 6.09381C2.89016 6.38399 1.14907 11.8974 0.858893 12.6954C0.496167 13.4934 1.00398 13.6385 1.00398 13.6385H1.58435C1.29417 14.7992 1.07653 15.96 1.07653 17.1932C1.07653 18.5716 1.29417 19.8774 1.65689 21.1832C2.09216 22.4891 2.67253 23.5772 3.47053 24.5929C4.26852 25.536 5.28416 26.334 6.51743 26.9143C7.7507 27.4947 9.12906 27.7849 10.7251 27.7849C12.3211 27.7849 13.6994 27.4947 14.9327 26.9143C16.166 26.334 17.1816 25.536 17.9796 24.5929C18.7776 23.6498 19.4305 22.4891 19.7932 21.1832C20.2285 19.8774 20.3736 18.5716 20.3736 17.1932C20.3736 15.96 20.2285 14.7992 19.8658 13.6385H20.5187C20.5912 13.6385 21.0265 13.4934 20.6638 12.6954ZM17.3267 14.2189C17.6169 15.2345 17.6894 16.1776 17.6894 17.1932C17.6894 18.2089 17.5443 19.2245 17.3267 20.1676C17.0365 21.1832 16.6738 22.0538 16.0934 22.8518C15.5131 23.6498 14.7876 24.3027 13.9171 24.738C13.0465 25.2458 11.9583 25.4634 10.7251 25.4634C9.49179 25.4634 8.47615 25.2458 7.53306 24.738C6.66252 24.2301 5.93707 23.6498 5.3567 22.8518C4.77634 22.0538 4.34107 21.1832 4.12343 20.1676C3.83325 19.152 3.76071 18.2089 3.76071 17.1932C3.76071 16.1776 3.9058 15.162 4.12343 14.2189C4.19598 14.0013 4.26852 13.8562 4.26852 13.6385H10.7251H17.1091C17.1816 13.8562 17.2541 14.0738 17.3267 14.2189Z" fill="#75C252"/>
</svg>
